<?xml version="1.0" encoding="UTF-8" standalone="no"?><!DOCTYPE svg PUBLIC "-//W3C//DTD SVG 1.1//EN" "http://www.w3.org/Graphics/SVG/1.1/DTD/svg11.dtd"><svg class="img-axel img-fluid" width="100%" height="100%" viewBox="0 0 1063 1063" version="1.1" xmlns="http://www.w3.org/2000/svg" xmlns:xlink="http://www.w3.org/1999/xlink" xml:space="preserve" xmlns:serif="http://www.serif.com/" style="fill-rule:evenodd;clip-rule:evenodd;stroke-linejoin:round;stroke-miterlimit:2;"><path d="M543.495,976.894l0.655,0.066l1.354,-1.12l2.416,-0.246c20.437,-4.195 97.916,-23.502 153.993,-79.868c28.684,-28.696 46.288,-66.362 56.437,-107.353c13.345,-53.899 13.761,-113.585 11.69,-164.054c6.392,-6.033 14.223,-16.901 14.479,-34.041c0.251,-13.328 -3.486,-22.533 -7.355,-28.493c1.294,-25.275 5.386,-35.06 8.522,-41.724c0.002,-0.005 0.004,-0.009 0.006,-0.014c3.249,-6.918 5.168,-12.379 5.215,-19.261c0.109,-3.234 -0.108,-6.187 -0.587,-8.88c0.153,-0.59 0.276,-1.191 0.37,-1.803c0,0 3.155,-25.032 -0.697,-36.904c-1.022,-3.148 -2.838,-5.916 -5.217,-8.072c-0.64,-7.634 -3.619,-16.087 -10.758,-24.971c-0.069,-2.47 -0.289,-5.305 -0.778,-8.402c6.682,-2.136 13.732,-6.145 20.864,-12.86c5.845,-5.504 7.537,-14.119 4.208,-21.425c-1.258,-2.762 -3.128,-5.105 -5.401,-6.906c3.138,-5.373 5.621,-12.123 6.887,-20.674c1.18,-7.971 -2.865,-15.804 -10.047,-19.458c-5.727,-2.913 -12.428,-2.649 -17.819,0.444c-1.681,-5.806 -4.243,-12.227 -8.037,-19.155l0.136,-1.009c1.066,-10.391 2.836,-25.849 1.77,-41.303c-0.013,-0.192 -0.029,-0.384 -0.048,-0.576c-0.52,-5.19 -2.448,-9.116 -4.516,-12.773c-5.248,-44.248 -19.645,-77.34 -41.582,-99.559c-0.054,-0.055 -0.109,-0.11 -0.164,-0.164c-43.115,-42.603 -116.493,-70.796 -187.383,-70.796c-37.698,-0 -77.916,16.196 -105.193,30.374c-31.318,16.19 -61.517,37.439 -80.845,57.023c-16.303,16.349 -28.322,46.501 -33.615,90.291c-3.043,4.752 -4.19,8.233 -4.737,11.52c-0,0 4.419,4.692 0.778,2.744l-0.94,-1.039c-2.193,21.942 -0.651,42.381 0.583,53.618c-14.251,19.697 -18.429,35.346 -18.636,46.707l-10.621,2.155c-8.902,1.133 -15.752,8.414 -16.342,17.368c-0.589,8.954 5.248,17.07 13.924,19.361c8.154,2.153 15.802,3.371 22.972,3.8c0.912,4.262 2.651,8.267 4.921,11.899c-0.443,2.031 -0.808,4.175 -1.076,6.439c-3.52,4.808 -7.488,10.536 -7.488,10.536c-1.06,1.536 -1.885,3.223 -2.448,5.004c-3.838,12.157 -0.646,36.798 -0.646,36.798c0.063,0.409 0.14,0.813 0.234,1.211c-0.563,2.9 -0.822,6.109 -0.698,9.661c0.061,6.746 2.026,12.605 5.235,19.092c2.926,6.649 7.182,16.622 8.499,41.69c-3.866,5.959 -7.601,15.162 -7.348,28.56c0.001,0.071 0.003,0.142 0.005,0.214c0.484,15.964 9.088,27.523 14.692,33.386c-2.205,50.641 -1.847,110.44 11.539,164.413c10.172,41.012 27.841,78.683 56.667,107.414c56.323,56.336 133.509,75.622 153.939,79.815c0.91,0.187 1.832,0.306 2.759,0.354l1.011,1.012l2.471,-0.286c0.758,0.102 1.369,0.174 1.791,0.22Zm198.678,-588.5c-0.502,-0.428 -0.725,-0.693 -0.633,-0.693l0.633,0.693c3.531,3.012 20.881,14.071 39.171,-3.151c0,-0 -24.571,2.458 -34.4,-12.29c0,-0 29.488,7.374 34.4,-25.81c0,0 -13.758,13.52 -26.046,11.799c0.984,-3.933 3.688,-20.156 -10.562,-43.016c-0,-1.474 0.246,-4.178 0.737,-7.128c0.984,-9.586 2.7,-23.843 1.717,-38.1c-0.246,-2.458 -1.471,-4.178 -2.454,-5.899c-0.738,-1.229 -1.475,-2.458 -1.721,-3.933c-4.421,-40.557 -16.708,-71.037 -36.608,-91.193c-40.05,-39.574 -108.355,-65.383 -174.205,-65.383c-34.641,-0 -71.495,15.24 -96.558,28.267c-29.484,15.24 -57.985,35.15 -76.167,53.585c-14.742,14.748 -24.325,42.77 -28.747,83.082c-0.246,0.491 -1.229,2.458 -1.966,3.441c-1.474,2.212 -2.211,3.687 -2.457,5.162l0,0.491c-2.702,27.039 0.738,51.619 1.475,57.027c-27.765,34.658 -17.2,52.356 -16.708,53.093c0.491,0.738 0.983,0.984 1.72,1.23l0.491,-0c-4.914,4.424 -31.941,7.865 -31.941,7.865c17.691,4.67 32.433,4.179 44.718,0.246c-14.251,12.29 -7.863,23.106 -0.737,29.498c-1.966,4.667 -3.44,10.321 -3.686,17.45c-3.194,3.933 -6.142,8.358 -6.879,13.275c-2.212,0.492 -3.44,0.983 -3.44,0.983c-2.949,9.338 -0,28.267 -0,28.267c-0,0 1.474,0 3.685,0.246c-2.457,2.704 -4.177,6.883 -3.931,13.025c-0,4.179 1.474,7.621 3.44,11.554c3.685,8.358 9.582,20.892 10.565,56.042c-2.457,2.212 -7.863,8.85 -7.617,21.879c0.491,16.221 11.794,23.104 12.285,23.596c0.491,0.246 0.737,0.246 1.228,0.246c0.738,-0 1.229,-0.246 1.72,-0.738c-4.422,85.542 -3.931,203.525 62.162,269.4c52.825,52.85 125.308,70.792 144.47,74.725l0,0.983c0,0 0.984,-0.245 2.459,-0.491c1.475,0.246 2.458,0.491 2.458,0.491l0,-0.983c19.163,-3.933 91.892,-21.875 144.471,-74.725c65.846,-65.875 66.337,-183.858 62.162,-269.154c0.492,0.246 0.984,0.492 1.475,0.492c0.492,-0 0.738,-0 1.23,-0.246c0.491,-0.246 12.037,-7.129 12.283,-23.596c0.246,-13.029 -5.158,-19.667 -7.617,-21.879c0.984,-35.15 6.634,-47.684 10.567,-56.042c1.962,-4.179 3.437,-7.375 3.437,-11.554c0.246,-6.142 -1.475,-10.321 -3.929,-13.025c2.209,-0.492 3.929,-0.246 3.929,-0.246c0,0 2.95,-19.175 0,-28.267c0,0 -2.7,-0.737 -7.616,-1.966c2.704,-7.621 2.458,-18.192 -9.584,-29.988c0,0 3.596,-20.376 -12.879,-38.637Zm-154.933,447.654c-13.021,-0 -31.45,-9.833 -31.45,-33.675c-0,-0 -7.617,3.192 -14.496,3.929c-6.879,-0.737 -14.496,-3.929 -14.496,-3.929c0,23.842 -18.429,33.675 -31.45,33.675c-13.021,-0 -66.337,-4.179 -66.337,-69.317c-0,-65.137 75.675,-60.962 92.137,-60.962c8.354,-0 16.463,-13.517 20.392,-26.546c3.933,13.029 11.796,26.546 20.396,26.546c16.458,-0 92.137,-4.175 92.137,60.962c0,65.138 -53.808,69.317 -66.833,69.317Zm-17.446,-80.871c-0.492,-0.246 -13.758,-5.408 -30.712,-5.408c-16.955,-0 -31.942,5.162 -32.434,5.408c-1.225,0.492 -1.962,1.967 -1.471,3.196c0.246,0.983 1.225,1.721 2.209,1.721c0.246,-0 0.491,-0 0.737,-0.246c0,-0 5.65,-1.967 13.759,-3.442c-1.225,2.459 -3.93,7.867 -6.388,11.8c-0.983,1.229 -1.967,2.459 -2.7,3.442c-0.737,0.733 -1.229,1.225 -1.721,1.225c-0.737,-0 -0.491,0.246 0.246,0.737c-0.492,0.492 -0.737,0.984 -0.737,0.984c-0,-0 6.879,1.966 15.233,3.441c3.929,0.738 8.108,1.475 12.037,1.475l1.967,0c3.933,0 8.108,-0.491 12.038,-1.475c8.354,-1.475 15.237,-3.441 15.237,-3.441c0,-0 -0.246,-0.246 -0.737,-0.984c0.737,-0.491 0.979,-0.737 0.245,-0.737c-0.491,-0 -1.229,-0.492 -1.72,-1.225c-0.738,-0.983 -1.721,-2.213 -2.705,-3.442c-2.458,-3.933 -4.912,-9.096 -6.141,-11.554c6.879,1.475 11.3,3.196 11.546,3.196c1.229,0.492 2.704,-0 3.195,-1.475c0.738,-1.229 0.246,-2.704 -0.983,-3.196Zm108.846,-0.737c-0,-86.03 -100.738,-78.659 -103.192,-110.121c0,-0 -17.2,10.571 -31.204,10.571c-1.229,-0 -2.212,0.491 -3.196,1.229c-0.737,-0.738 -1.721,-1.229 -3.191,-1.229c-14.009,-0 -31.205,-10.571 -31.205,-10.571c-2.458,31.462 -103.195,24.091 -103.195,110.121c0,-0 -49.877,-89.963 -49.877,-130.767c-0,-27.529 -1.228,-46.704 -2.948,-59.729c20.147,19.908 60.196,19.908 60.196,19.908c111.795,0.246 106.141,-59.729 112.533,-84.067c4.912,-12.779 13.758,-13.025 16.95,-12.533l-0,0.246c-0,-0 0.246,-0 0.737,-0.246c0.492,0 0.738,0.246 0.738,0.246l-0,-0.246c3.441,-0.492 12.041,-0.246 16.954,12.533c6.387,24.338 0.492,84.559 112.529,84.067c0,0 40.05,0 60.196,-19.908c-1.717,13.025 -2.946,32.2 -2.946,59.729c0,40.804 -49.879,130.767 -49.879,130.767Zm-89.925,-40.805c-0,0 -11.058,9.834 -51.842,9.834c-35.137,-0 -49.633,-10.079 -49.879,-10.079c-0.983,-0.738 -2.704,-0.492 -3.437,0.491c-0.738,0.984 -0.492,2.704 0.491,3.442c0.734,0.492 15.721,11.062 52.825,11.062c43.488,0 54.792,-10.816 55.279,-11.308c0.984,-0.983 0.984,-2.458 0,-3.442c-0.733,-0.737 -2.454,-0.737 -3.437,0Zm-6.388,-78.904c1.471,0 2.455,-0.983 2.455,-2.454c-0,-1.475 -0.984,-2.458 -2.455,-2.458l-6.637,-0c-6.142,-0 -10.071,2.95 -14.25,6.141c-4.913,3.688 -10.071,7.375 -20.392,7.867c-10.321,-0.246 -15.479,-4.179 -20.391,-7.867c-4.18,-3.191 -8.109,-6.141 -14.255,-6.141l-6.387,-0c-1.475,-0 -2.454,0.983 -2.454,2.458c-0,1.471 0.979,2.454 2.454,2.454l6.633,0c4.425,0 7.371,2.213 11.304,5.163c4.667,3.687 10.567,7.866 21.13,8.604c0.245,-0 0.491,0.246 0.737,0.246l2.95,-0c0.246,-0 0.492,-0 0.738,-0.246c10.562,-0.738 16.458,-5.163 21.129,-8.604c3.683,-2.704 6.879,-5.163 11.3,-5.163l6.391,0Zm-78.137,2.459c-8.104,-0 -23.338,-4.425 -23.338,-21.63c0,-16.225 15.475,-30.725 15.475,-30.97c0.984,-0.984 0.984,-2.459 0.246,-3.442c-0.979,-0.983 -2.454,-0.983 -3.437,-0.246c-0.738,0.738 -17.2,16.225 -17.2,34.658c-0,12.784 8.846,26.546 28.254,26.546c1.475,0 2.458,-0.983 2.458,-2.458c0,-1.475 -1.229,-2.458 -2.458,-2.458Zm85.258,-56.288c-0.979,-0.983 -2.454,-0.983 -3.437,0.246c-0.984,0.983 -0.984,2.458 0.246,3.442c0.245,0.245 15.479,14.5 15.479,30.97c-0,17.209 -15.234,21.63 -23.342,21.63c-1.475,-0 -2.458,0.983 -2.458,2.458c-0,1.475 0.983,2.458 2.458,2.458c19.408,0 28.254,-13.762 28.254,-26.546c-0.246,-18.433 -16.708,-33.92 -17.2,-34.658Zm-257.244,29.25c-0.246,-0.246 -0.491,-0.492 -0.737,-0.492c0,0 -9.582,-5.654 -10.074,-19.416c-0.246,-13.521 6.389,-18.438 6.634,-18.684c0.737,-0.491 0.983,-1.229 0.983,-1.966c-0.983,-36.871 -6.88,-50.388 -11.057,-59.238c-1.719,-3.933 -2.948,-6.391 -2.948,-9.833c-0,-3.929 0.492,-8.6 4.422,-11.058c1.966,0.983 3.932,2.212 5.898,4.179c8.107,15.975 10.073,44.487 10.073,44.487c0.492,17.7 -1.474,42.771 -3.194,72.021Zm434.644,-109.629c0,3.196 -1.229,5.9 -2.95,9.833c-3.929,8.85 -10.071,22.121 -11.054,59.238c0,0.737 0.492,1.721 0.983,1.966c0,0 6.88,4.917 6.634,18.684c-0.246,13.516 -9.584,19.171 -9.829,19.416c-0.246,0 -0.246,0.246 -0.492,0.492c-1.475,-29.004 -3.438,-54.075 -3.438,-71.775l-0.245,-0.246c0.245,-2.704 2.208,-28.512 9.825,-43.75c2.212,-1.966 4.179,-3.441 6.141,-4.425c3.934,2.213 4.425,6.884 4.425,10.567Zm-399.754,-41.046c5.405,-0.737 12.53,-2.212 15.97,-2.95c1.474,-0.246 2.948,-0.492 4.423,-0.492l31.449,-1.966l17.2,-0l27.271,1.721c32.433,4.179 60.2,18.433 47.666,67.104c-15.233,56.041 -81.571,55.304 -98.771,55.304c-60.196,-0 -74.201,-40.067 -74.201,-94.879c-1.474,-12.784 11.794,-19.913 28.993,-23.842Zm248.404,-3.442l35.871,-2.212l3.438,-0c3.195,-0 9.337,-0 16.954,0.246l15.971,0.983c26.783,2.458 58.97,9.092 56.758,28.021c-0,54.567 -14.25,94.879 -74.204,94.879c-17.196,0 -83.538,0.738 -98.771,-55.304c-12.529,-46.95 13.025,-61.942 43.983,-66.613Zm40.542,73.988c-7.125,-0 -15.479,-4.671 -24.571,-9.342c-9.583,-5.162 -19.412,-10.571 -28.746,-10.571c-1.475,0 -2.458,0.984 -2.458,2.459c-0,1.475 0.983,2.458 2.458,2.458c8.109,0 17.442,5.163 26.534,9.833c9.337,5.163 18.429,10.075 26.783,10.075c1.475,0 2.454,-0.983 2.454,-2.458c0,-1.475 -0.979,-2.454 -2.454,-2.454Zm-176.417,-19.913c-9.337,0 -19.166,5.409 -28.746,10.571c-8.845,4.917 -17.2,9.342 -24.57,9.342c-1.475,-0 -2.459,0.979 -2.459,2.454c0,1.475 0.984,2.458 2.459,2.458c8.354,0 17.445,-4.912 26.779,-10.075c9.091,-4.916 18.183,-9.833 26.537,-9.833c1.475,0 2.459,-0.983 2.459,-2.458c-0,-1.475 -1.23,-2.459 -2.459,-2.459Zm184.275,2.95c-22.604,0 -36.608,-5.9 -36.608,-5.9c-1.229,-0.491 -2.704,0 -3.196,1.23c-0.492,1.229 0,2.704 1.229,3.195c0.492,0.246 14.988,6.392 38.575,6.392c1.475,0 2.459,-0.983 2.459,-2.458c-0,-1.475 -1.23,-2.459 -2.459,-2.459Zm-205.404,-4.67c-0.492,-1.23 -1.967,-1.721 -3.196,-1.23c-0.246,0 -14.25,5.9 -36.609,5.9c-1.474,0 -2.457,0.984 -2.457,2.459c-0,1.475 0.983,2.458 2.457,2.458c23.588,0 38.084,-6.146 38.576,-6.392c1.229,-0.491 1.717,-1.966 1.229,-3.195Zm133.663,-10.325c0.487,0.245 0.979,0.491 1.225,0.491c0.737,0 1.475,-0.491 1.966,-1.229c0.246,-0.492 8.354,-12.287 29.484,-12.287l0.245,-0c-0.245,0.983 -0.245,1.966 -0.245,2.704c-0,9.829 7.862,17.696 17.691,17.696c9.584,-0 17.446,-7.621 17.692,-17.205c6.387,0.984 12.529,1.721 17.933,2.705c9.338,1.475 15.971,2.458 18.675,2.458c1.475,-0 2.459,-0.983 2.459,-2.458c-0,-1.475 -0.984,-2.459 -2.459,-2.459c-2.212,0 -9.583,-1.229 -17.937,-2.458c-16.463,-2.458 -38.821,-5.9 -53.809,-5.9c-23.833,-0 -33.166,13.767 -33.412,14.504c-0.983,1.225 -0.738,2.7 0.492,3.438Zm-206.388,-4.667c2.703,-0 9.336,-0.983 18.673,-2.458c5.405,-0.738 11.548,-1.721 17.935,-2.705c0.246,9.584 8.109,17.205 17.692,17.205c9.829,-0 17.692,-7.867 17.692,-17.696c-0,-0.984 -0,-1.967 -0.246,-2.704l0.246,-0c21.129,-0 28.991,11.795 29.483,12.287c0.492,0.738 1.229,1.229 1.967,1.229c0.487,0 0.979,-0.246 1.225,-0.491c1.229,-0.738 1.475,-2.213 0.737,-3.438c-0.491,-0.492 -9.579,-14.504 -33.412,-14.504c-14.988,-0 -37.35,3.442 -53.81,5.9c-8.354,1.229 -15.479,2.458 -17.936,2.458c-1.475,0 -2.458,0.984 -2.458,2.459c0,1.475 0.983,2.458 2.212,2.458Zm261.913,-5.408c-0,2.95 -2.455,5.162 -5.159,5.162c-2.704,0 -5.158,-2.458 -5.158,-5.162c-0,-0.738 0.246,-1.475 0.492,-2.213c3.191,0.246 6.633,0.738 9.825,0.983l-0,1.23Zm-202.455,-0c0,2.95 -2.454,5.162 -5.158,5.162c-2.704,0 -5.158,-2.458 -5.158,-5.162c-0,-0.492 -0,-0.738 0.246,-1.23c3.437,-0.491 6.633,-0.737 9.825,-0.983c-0,0.492 0.245,1.229 0.245,2.213Zm297.296,-34.905c-4.666,-0.737 -9.829,-1.475 -15.725,-2.212c0.738,-0.983 1.229,-1.721 1.229,-1.721c-2.704,-1.967 -5.404,-8.604 -5.404,-8.604c-6.879,-1.229 -17.446,-14.5 -17.446,-14.5c-12.775,3.437 -53.562,0.246 -53.562,0.246c1.475,-2.213 4.421,-3.442 4.421,-3.442c-25.55,-2.95 -54.054,9.338 -54.054,9.338c-0.984,-2.459 2.704,-9.338 2.704,-9.338c-16.217,5.9 -22.85,28.267 -24.817,36.625c-11.792,3.688 -22.604,6.633 -38.575,6.633c-13.758,0 -23.833,-2.212 -33.904,-5.158c-1.475,-6.883 -7.863,-31.712 -25.063,-38.1c0,0 3.684,6.879 2.705,9.338c-0,-0 -28.505,-12.288 -54.055,-9.338c0,0 2.7,1.229 4.421,3.442c0,-0 -40.541,2.946 -53.563,-0.246c0,-0 -10.81,13.271 -17.444,14.5c-0,-0 -2.703,6.883 -5.406,8.604c0,0 0.492,0.492 0.983,1.229c-3.44,0.492 -6.879,0.738 -10.073,1.229c-1.229,-29.741 -4.423,-56.535 -5.406,-63.172c21.13,-15.485 30.958,-41.049 34.644,-54.076c47.174,-35.15 114.003,-74.479 175.428,-74.479c17.446,-0 34.154,2.458 50.125,6.637c8.354,12.782 34.396,50.144 41.525,32.692c-0,-0 19.654,17.698 38.083,4.67c0,0 24.567,42.032 19.654,70.3c-4.912,28.267 25.8,28.267 25.8,28.267c0,0 2.946,29.003 12.775,50.636Zm-421.289,3.445l0.159,-0.003c-0.053,0 -0.106,0 -0.159,0.003l-0.025,0.001l-0.092,0.009l-0.069,0.012l-0.023,0.006l-0.006,0.002c-0.06,0.015 -0.119,0.037 -0.178,0.071c-0.062,0.034 -0.123,0.08 -0.185,0.142c0.062,-0.062 0.123,-0.108 0.185,-0.142l0.178,-0.071l0.016,-0.004l0.082,-0.016l0.117,-0.01Zm2.371,-0.495c-0.123,0 -0.308,0.062 -0.492,0.123c-0.184,0.062 -0.368,0.123 -0.491,0.123c0.245,-0.246 0.491,-0.246 0.983,-0.246Zm1.366,-0.269c0.106,-0.017 0.23,-0.058 0.353,-0.099c0.185,-0.062 0.369,-0.123 0.492,-0.123c-0.4,-0 -0.637,0.163 -0.845,0.222l-0.138,0.024c0.046,-0 0.091,-0.009 0.138,-0.024Zm2.074,-0.468c0.245,-0 0.429,-0.062 0.614,-0.123c0.184,-0.061 0.368,-0.123 0.614,-0.123c-0.491,0 -0.983,0.246 -1.228,0.246Zm6.633,-1.229c0.246,-0 0.43,-0.062 0.614,-0.123c0.185,-0.062 0.369,-0.123 0.615,-0.123c-0.492,-0 -0.983,0.246 -1.229,0.246Zm3.863,-0.733l0.069,-0.005c-0.022,0 -0.045,0.002 -0.069,0.005l-0.079,0.015c0.028,-0.006 0.054,-0.011 0.079,-0.015Zm3.109,-0.452l0.215,-0.034l-0.184,0.028l-0.046,0.009l-0.059,0.013l-0.08,0.017l-0.092,0.023l-0.101,0.025l-0.19,0.045l-0.141,0.031l-0.044,0.008l-0.169,0.026c0.056,-0.006 0.113,-0.015 0.169,-0.026l0.108,-0.021l0.077,-0.018l0.061,-0.013l0.138,-0.034l0.114,-0.028l0.15,-0.035l0.074,-0.016Zm2.365,-0.29c0.246,-0 0.491,-0.062 0.737,-0.123c0.246,-0.062 0.491,-0.123 0.737,-0.123c-0.737,-0 -1.228,0.246 -1.474,0.246Zm-11.057,-115.283c2.949,-3.441 5.897,-6.882 9.337,-10.323l0.246,-0.246c0.982,-1.229 2.211,-2.212 3.439,-3.442c43.244,-43.261 105.652,-92.667 206.389,-92.667c61.179,-0 133.171,27.53 171.008,65.629c1.717,1.721 3.438,3.441 5.159,5.408l0.246,0.245c1.475,1.721 2.95,3.442 4.42,4.917c0.246,0.246 0.246,0.246 0.492,0.491c1.229,1.475 2.458,3.196 3.688,4.67c0.245,0.246 0.491,0.492 0.491,0.738c1.229,1.475 2.209,3.195 3.192,4.67c10.567,16.715 11.796,29.742 11.304,36.133c-17.2,-18.926 -96.562,-98.567 -196.562,-98.567c-103.684,0 -221.375,108.891 -240.539,127.572c-1.72,-5.899 -1.966,-20.893 17.69,-45.228Zm-0.245,-7.374c-1.229,-9.094 -2.949,-29.005 -0.983,-50.635c71.253,-94.389 198.772,-102.746 200.002,-102.746c82.554,-0 134.395,24.089 163.633,44.244c31.45,21.877 43.737,43.999 43.737,44.245l3.93,6.637c0.983,13.519 -0.738,27.53 -1.721,36.624c-0,0.492 -0,0.984 -0.246,1.229c-0.983,-1.475 -2.208,-2.703 -3.192,-4.178c-0.983,-1.229 -1.966,-2.458 -3.196,-3.933c-0.245,-0.246 -0.491,-0.492 -0.491,-0.737c-0.984,-0.984 -1.963,-2.213 -2.946,-3.196c-0.246,-0.246 -0.492,-0.491 -0.738,-0.737c-1.229,-1.229 -2.458,-2.704 -3.933,-3.933c-39.558,-39.575 -111.3,-67.105 -174.446,-67.105c-102.458,0 -165.848,50.39 -209.828,94.143c-1.72,1.721 -3.194,3.196 -4.668,4.916c-0.246,0.246 -0.492,0.738 -0.983,0.983c-1.229,1.475 -2.457,2.704 -3.686,4.179c0,-0.246 0,0 -0.245,0Zm-23.217,-52.445c-0.651,-0.36 -1.033,-0.293 -1.033,0.342l0.006,0.166l-0.006,0.079c0,15.873 0.11,15.147 0.006,-0.079c0.039,-0.698 0.612,-0.599 1.532,0.05l-0.505,-0.558Zm54.421,-87.909c33.169,-33.183 108.352,-78.657 166.094,-80.377c-1.229,6.637 -1.967,22.859 -0.738,62.434c-17.2,1.475 -124.079,14.256 -192.138,93.405c4.423,-36.625 13.514,-62.188 26.782,-75.462Zm374.202,64.401c-6.387,-8.603 -18.921,-22.86 -39.558,-37.362c-29.484,-20.402 -81.575,-44.737 -164.129,-45.228c-1.475,-46.211 -0,-58.993 0.737,-62.434c64.129,0.491 130.221,25.318 168.796,63.909c17.692,18.189 29.237,45.474 34.154,81.115Z" /></svg>