<svg width="24" height="24" viewBox="0 0 24 24" class="icon" xmlns="http://www.w3.org/2000/svg">
<path fill-rule="evenodd" clip-rule="evenodd" d="M7.5 0C8.32843 0 9 0.671573 9 1.5V2H15V1.5C15 0.671573 15.6716 0 16.5 0C17.3284 0 18 0.671573 18 1.5V2H20C22.2091 2 24 3.79086 24 6V20C24 22.2091 22.2091 24 20 24H4C1.79086 24 0 22.2091 0 20V6C0 3.79086 1.79086 2 4 2H6V1.5C6 0.671573 6.67157 0 7.5 0ZM9 5H15V5.5C15 6.32843 15.6716 7 16.5 7C17.3284 7 18 6.32843 18 5.5V5H20C20.5523 5 21 5.44772 21 6V20C21 20.5523 20.5523 21 20 21H4C3.44772 21 3 20.5523 3 20V6C3 5.44772 3.44772 5 4 5H6V5.5C6 6.32843 6.67157 7 7.5 7C8.32843 7 9 6.32843 9 5.5V5ZM5 16H19V19H5V16Z" />
</svg>
