<svg width="24" height="24" class="icon" viewBox="0 0 24 24" fill="none" xmlns="http://www.w3.org/2000/svg">
<path fill-rule="evenodd" clip-rule="evenodd" d="M20 0C22.2091 0 24 1.79086 24 4V20C24 22.2091 22.2091 24 20 24H4C1.79086 24 0 22.2091 0 20V4C0 1.79086 1.79086 0 4 0C11 8.70228e-05 14.6368 0 20 0ZM20 3C20.5523 3 21 3.44772 21 4V20C21 20.5523 20.5523 21 20 21H4C3.44772 21 3 20.5523 3 20V4C3 3.44772 3.44772 3 4 3C9.91917 3 15.3144 3 20 3Z" fill="currentColor"/>
<rect x="6" y="3" width="3" height="18" fill="currentColor"/>
<rect x="11" y="5" width="6" height="3" fill="currentColor"/>
<rect x="13" y="10" width="6" height="3" fill="currentColor"/>
<rect x="11" y="15" width="6" height="3" fill="currentColor"/>
</svg>
