<svg width="24" height="24" class="icon" viewBox="0 0 24 24" fill="none" xmlns="http://www.w3.org/2000/svg">
<path fill-rule="evenodd" clip-rule="evenodd" d="M9 0H15V4H20C22.2091 4 24 5.79086 24 8V20C24 22.2091 22.2091 24 20 24H4C1.79086 24 0 22.2091 0 20V8C0 5.79086 1.79086 4 4 4H9V0ZM15 9H9V7H4C3.44772 7 3 7.44772 3 8V20C3 20.5523 3.44772 21 4 21H20C20.5523 21 21 20.5523 21 20V8C21 7.44772 20.5523 7 20 7H15V9ZM11 11H5V19H11V11ZM13 11H19V14H13V11ZM19 16H13V19H19V16Z" fill="currentColor"/>
</svg>
