<svg width="24" height="24" class="icon" viewBox="0 0 24 24" fill="none" xmlns="http://www.w3.org/2000/svg">
<path fill-rule="evenodd" clip-rule="evenodd" d="M20 0C22.2091 0 24 1.79086 24 4V20C24 22.2091 22.2091 24 20 24H4C1.79086 24 0 22.2091 0 20V4C0 1.79086 1.79086 0 4 0C11 8.70228e-05 14.6368 0 20 0ZM20 3C20.5523 3 21 3.44772 21 4V20C21 20.5523 20.5523 21 20 21H4C3.44772 21 3 20.5523 3 20V4C3 3.44772 3.44772 3 4 3C9.91917 3 15.3144 3 20 3Z" fill="currentColor"/>
<path fill-rule="evenodd" clip-rule="evenodd" d="M11.974 5.5C10.6648 5.5 9.57534 5.8358 8.77415 6.57105C7.98247 7.28564 7.56507 8.23739 7.50086 9.38024L7.47119 9.90828H10.5858L10.6319 9.45947C10.6659 9.12918 10.7943 8.89089 11.0116 8.70833L11.0195 8.7014C11.2267 8.51976 11.5415 8.39941 12.0261 8.39941C12.5299 8.39941 12.821 8.51117 12.9843 8.65153L12.9936 8.65914C13.1693 8.80292 13.2441 8.96383 13.2441 9.17752C13.2441 9.43474 13.1754 9.61218 13.0645 9.74554L13.0631 9.7473C12.9393 9.89771 12.6998 10.0853 12.2968 10.297C11.8624 10.5252 11.5123 10.734 11.2609 10.9229C10.463 11.4999 10.1205 12.4404 10.1205 13.5976V15H13.1682V13.7929C13.1682 13.6004 13.1883 13.4525 13.2192 13.3416L13.2214 13.3332C13.2438 13.2474 13.3032 13.1234 13.4335 12.96C13.5425 12.8372 13.8229 12.6338 14.3555 12.3554C15.0449 12.0025 15.5915 11.5852 15.9535 11.0867L15.9573 11.0813C16.3289 10.555 16.5001 9.92215 16.5001 9.21302C16.5001 8.14743 16.0652 7.2474 15.2308 6.5423C14.3981 5.82863 13.2929 5.5 11.974 5.5ZM13.1682 16H10.1205V17.8077H13.1682V16Z" fill="currentColor"/>
</svg>
