<svg width="255" height="255" viewBox="0 0 255 255" fill="none" class="img-fluid" xmlns="http://www.w3.org/2000/svg">
<path d="M120.483 153.896C118.538 153.896 114.882 152.834 114.882 148.705C114.882 144.811 118.596 141.331 118.596 141.272C118.832 141.036 118.832 140.682 118.655 140.446C118.42 140.21 118.066 140.21 117.83 140.387C117.653 140.564 113.702 144.281 113.702 148.705C113.702 151.773 115.825 155.076 120.483 155.076C120.837 155.076 121.073 154.84 121.073 154.486C121.073 154.132 120.778 153.896 120.483 153.896Z" fill=""/>
<path d="M140.945 140.387C140.71 140.151 140.356 140.151 140.12 140.446C139.884 140.682 139.884 141.036 140.179 141.272C140.238 141.331 143.894 144.752 143.894 148.705C143.894 152.835 140.238 153.896 138.292 153.896C137.938 153.896 137.702 154.132 137.702 154.486C137.702 154.84 137.938 155.076 138.292 155.076C142.95 155.076 145.073 151.773 145.073 148.705C145.014 144.281 141.063 140.564 140.945 140.387Z" fill=""/>
<path d="M139.236 153.306C139.589 153.306 139.825 153.07 139.825 152.717C139.825 152.363 139.589 152.127 139.236 152.127H137.643C136.169 152.127 135.226 152.835 134.223 153.601C133.044 154.486 131.806 155.371 129.329 155.489C126.852 155.43 125.614 154.486 124.435 153.601C123.432 152.835 122.489 152.127 121.014 152.127H119.481C119.127 152.127 118.892 152.363 118.892 152.717C118.892 153.07 119.127 153.306 119.481 153.306H121.073C122.135 153.306 122.842 153.837 123.786 154.545C124.906 155.43 126.322 156.433 128.857 156.61C128.916 156.61 128.975 156.669 129.034 156.669C129.152 156.669 129.27 156.669 129.388 156.669C129.506 156.669 129.624 156.669 129.742 156.669C129.801 156.669 129.86 156.669 129.919 156.61C132.454 156.433 133.869 155.371 134.99 154.545C135.874 153.896 136.641 153.306 137.702 153.306H139.236Z" fill=""/>
<path d="M92.062 119.386C92.7106 119.386 94.3027 119.15 96.5435 118.796C97.8408 118.619 99.315 118.383 100.848 118.147C100.907 120.447 102.794 122.276 105.094 122.276C107.453 122.276 109.34 120.388 109.34 118.029C109.34 117.793 109.34 117.557 109.281 117.38H109.34C114.411 117.38 116.298 120.211 116.416 120.329C116.534 120.506 116.711 120.624 116.888 120.624C117.005 120.624 117.123 120.565 117.182 120.506C117.477 120.329 117.536 119.975 117.359 119.681C117.241 119.563 115.06 116.2 109.34 116.2C105.743 116.2 100.376 117.026 96.4256 117.616C94.4207 117.911 92.7106 118.206 92.1209 118.206C91.7671 118.206 91.5312 118.442 91.5312 118.796C91.5312 119.15 91.7671 119.386 92.062 119.386ZM106.332 118.088C106.332 118.796 105.743 119.327 105.094 119.327C104.445 119.327 103.856 118.737 103.856 118.088C103.856 117.97 103.856 117.911 103.915 117.793C104.74 117.675 105.507 117.616 106.273 117.557C106.273 117.675 106.332 117.852 106.332 118.088Z" fill=""/>
<path d="M109.516 122.984C109.398 122.689 109.044 122.571 108.749 122.689C108.69 122.689 105.329 124.105 99.9627 124.105C99.6089 124.105 99.373 124.341 99.373 124.695C99.373 125.049 99.6089 125.285 99.9627 125.285C105.624 125.285 109.103 123.81 109.221 123.751C109.516 123.633 109.633 123.279 109.516 122.984Z" fill=""/>
<path d="M114.587 123.397C112.346 123.397 109.987 124.695 107.688 125.934C105.565 127.114 103.56 128.176 101.791 128.176C101.437 128.176 101.201 128.411 101.201 128.765C101.201 129.119 101.437 129.355 101.791 129.355C103.796 129.355 105.978 128.176 108.218 126.937C110.4 125.757 112.582 124.577 114.587 124.577C114.941 124.577 115.177 124.341 115.177 123.987C115.177 123.633 114.882 123.397 114.587 123.397Z" fill=""/>
<path d="M141.595 120.506C141.712 120.565 141.83 120.624 141.889 120.624C142.066 120.624 142.243 120.506 142.361 120.329C142.42 120.211 144.366 117.38 149.437 117.38H149.496C149.437 117.616 149.437 117.852 149.437 118.029C149.437 120.388 151.324 122.276 153.683 122.276C155.983 122.276 157.87 120.447 157.929 118.147C159.462 118.383 160.936 118.56 162.233 118.796C164.474 119.15 166.066 119.386 166.715 119.386C167.069 119.386 167.305 119.15 167.305 118.796C167.305 118.442 167.069 118.206 166.715 118.206C166.184 118.206 164.415 117.911 162.41 117.616C158.459 117.026 153.093 116.2 149.496 116.2C143.776 116.2 141.536 119.504 141.477 119.681C141.241 119.975 141.3 120.329 141.595 120.506ZM154.921 118.088C154.921 118.796 154.332 119.327 153.683 119.327C153.034 119.327 152.445 118.737 152.445 118.088C152.445 117.911 152.504 117.734 152.563 117.557C153.329 117.616 154.155 117.734 154.921 117.793C154.921 117.852 154.921 117.97 154.921 118.088Z" fill=""/>
<path d="M158.813 124.105C153.388 124.105 150.027 122.689 150.027 122.689C149.732 122.571 149.378 122.689 149.26 122.984C149.142 123.279 149.26 123.633 149.555 123.751C149.673 123.81 153.152 125.285 158.813 125.285C159.167 125.285 159.403 125.049 159.403 124.695C159.403 124.341 159.108 124.105 158.813 124.105Z" fill=""/>
<path d="M156.927 128.176C155.217 128.176 153.212 127.055 151.03 125.934C148.73 124.695 146.371 123.397 144.131 123.397C143.777 123.397 143.541 123.633 143.541 123.987C143.541 124.341 143.777 124.577 144.131 124.577C146.077 124.577 148.317 125.816 150.499 126.937C152.74 128.176 154.922 129.355 156.927 129.355C157.281 129.355 157.516 129.119 157.516 128.765C157.516 128.411 157.281 128.176 156.927 128.176Z" fill=""/>
<path d="M136.228 182.213C136.11 182.154 132.926 180.915 128.857 180.915C124.788 180.915 121.191 182.154 121.073 182.213C120.779 182.331 120.602 182.685 120.72 182.98C120.779 183.216 121.014 183.393 121.25 183.393C121.309 183.393 121.368 183.393 121.427 183.334C121.427 183.334 122.783 182.862 124.729 182.508C124.435 183.098 123.786 184.396 123.196 185.34C122.96 185.635 122.724 185.93 122.548 186.166C122.371 186.342 122.253 186.46 122.135 186.46C121.958 186.46 122.017 186.519 122.194 186.637C122.076 186.755 122.017 186.873 122.017 186.873C122.017 186.873 123.668 187.345 125.673 187.699C126.616 187.876 127.619 188.053 128.562 188.053C128.621 188.053 128.739 188.053 128.798 188.053C128.857 188.053 128.975 188.053 129.034 188.053C129.978 188.053 130.98 187.935 131.923 187.699C133.928 187.345 135.58 186.873 135.58 186.873C135.58 186.873 135.521 186.814 135.403 186.637C135.58 186.519 135.638 186.46 135.462 186.46C135.344 186.46 135.167 186.342 135.049 186.166C134.872 185.93 134.636 185.635 134.4 185.34C133.81 184.396 133.221 183.157 132.926 182.567C134.577 182.921 135.638 183.334 135.697 183.334C135.992 183.452 136.346 183.334 136.464 182.98C136.641 182.685 136.523 182.331 136.228 182.213Z" fill=""/>
<path d="M140.769 172.243C140.769 172.243 138.115 174.603 128.327 174.603C119.894 174.603 116.415 172.184 116.356 172.184C116.12 172.007 115.707 172.066 115.531 172.302C115.354 172.538 115.413 172.951 115.649 173.128C115.825 173.246 119.422 175.783 128.327 175.783C138.764 175.783 141.477 173.187 141.594 173.069C141.83 172.833 141.83 172.479 141.594 172.243C141.418 172.066 141.005 172.066 140.769 172.243Z" fill=""/>
<path d="M187 93.4288C187 93.4288 181.103 94.0187 178.744 90.4791C178.744 90.4791 185.821 92.2489 187 84.2849C187 84.2849 183.698 87.5295 180.749 87.1166C180.985 86.1727 181.634 82.2791 178.214 76.7928C178.214 76.4389 178.273 75.7899 178.391 75.082C178.627 72.7813 179.039 69.3597 178.803 65.9381C178.744 65.3482 178.45 64.9353 178.214 64.5223C178.037 64.2273 177.86 63.9324 177.801 63.5784C176.74 53.8446 173.791 46.5295 169.015 41.6921C159.403 32.1942 143.01 26 127.206 26C118.892 26 110.047 29.6576 104.032 32.7842C96.9558 36.4417 90.1155 41.2201 85.7518 45.6446C82.2138 49.1842 79.914 55.9094 78.8526 65.5842C78.7936 65.7022 78.5577 66.1741 78.3808 66.4101C78.027 66.941 77.8501 67.295 77.7912 67.6489V67.7079V67.7669C77.1425 74.2561 77.9681 80.1554 78.145 81.4532C71.4816 89.7712 74.0172 94.0187 74.1351 94.1957C74.2531 94.3727 74.371 94.4317 74.5479 94.4907H74.6069C74.6069 94.4907 74.6069 94.4907 74.6658 94.4907C73.4865 95.5525 67 96.3784 67 96.3784C71.2457 97.4993 74.7838 97.3813 77.7322 96.4374C74.312 99.3871 75.8452 101.983 77.5553 103.517C77.0835 104.637 76.7297 105.994 76.6708 107.705C75.9042 108.649 75.1966 109.711 75.0197 110.891C74.4889 111.009 74.1941 111.127 74.1941 111.127C73.4865 113.368 74.1941 117.911 74.1941 117.911C74.1941 117.911 74.5479 117.911 75.0786 117.97C74.4889 118.619 74.0762 119.622 74.1351 121.096C74.1351 122.099 74.4889 122.925 74.9607 123.869C75.8452 125.875 77.2604 128.883 77.4963 137.319C76.9066 137.85 75.6093 139.443 75.6683 142.57C75.7862 146.463 78.4988 148.115 78.6167 148.233C78.7346 148.292 78.7936 148.292 78.9115 148.292C79.0885 148.292 79.2064 148.233 79.3243 148.115C78.2629 168.645 78.3808 196.961 94.2432 212.771C106.921 225.455 124.317 229.761 128.916 230.705V230.941C128.916 230.941 129.152 230.882 129.506 230.823C129.86 230.882 130.096 230.941 130.096 230.941V230.705C134.695 229.761 152.15 225.455 164.769 212.771C180.572 196.961 180.69 168.645 179.688 148.174C179.806 148.233 179.924 148.292 180.042 148.292C180.16 148.292 180.219 148.292 180.337 148.233C180.455 148.174 183.226 146.522 183.285 142.57C183.344 139.443 182.047 137.85 181.457 137.319C181.693 128.883 183.049 125.875 183.993 123.869C184.464 122.866 184.818 122.099 184.818 121.096C184.877 119.622 184.464 118.619 183.875 117.97C184.405 117.852 184.818 117.911 184.818 117.911C184.818 117.911 185.526 113.309 184.818 111.127C184.818 111.127 184.17 110.95 182.99 110.655C183.639 108.826 183.58 106.289 180.69 103.458C180.69 103.458 181.575 98.4432 177.447 94.0187C177.27 94.0187 181.988 98.1482 187 93.4288ZM176.386 61.9266C174.853 59.8619 171.845 56.4403 166.892 52.9597C159.816 48.0633 147.314 42.223 127.501 42.105C127.147 31.0144 127.501 27.9468 127.678 27.1209C143.069 27.2388 158.931 33.1971 168.189 42.459C172.435 46.8245 175.206 53.3727 176.386 61.9266ZM86.5774 46.4705C94.5381 38.5065 112.582 27.5928 126.44 27.1799C126.145 28.7727 125.968 32.6662 126.263 42.164C122.135 42.518 96.484 45.5856 80.1499 64.5813C81.2113 55.7914 83.3931 49.6561 86.5774 46.4705ZM79.0885 80.1554C78.7936 77.9727 78.3808 73.1942 78.8526 68.0029C95.9533 45.3496 126.558 43.3439 126.853 43.3439C146.666 43.3439 159.108 49.1252 166.125 53.9626C173.673 59.213 176.622 64.5223 176.622 64.5813L177.565 66.1741C177.801 69.4187 177.388 72.7813 177.152 74.964C177.152 75.082 177.152 75.2 177.093 75.259C176.857 74.905 176.563 74.6101 176.327 74.2561C176.091 73.9612 175.855 73.6662 175.56 73.3122C175.501 73.2532 175.442 73.1942 175.442 73.1353C175.206 72.8993 174.971 72.6043 174.735 72.3683C174.676 72.3094 174.617 72.2504 174.558 72.1914C174.263 71.8964 173.968 71.5424 173.614 71.2475C164.12 61.7496 146.902 55.1424 131.747 55.1424C107.157 55.1424 91.9435 67.236 81.3882 77.7367C80.9754 78.1496 80.6216 78.5036 80.2678 78.9165C80.2088 78.9755 80.1499 79.0935 80.0319 79.1525C79.7371 79.5065 79.4423 79.8014 79.1474 80.1554C79.1474 80.0964 79.1474 80.1554 79.0885 80.1554ZM79.1474 81.9252C79.855 81.0993 80.5627 80.2734 81.3882 79.4475L81.4472 79.3885C81.683 79.0935 81.9779 78.8576 82.2727 78.5626C92.6511 68.1799 107.629 56.3223 131.806 56.3223C146.489 56.3223 163.767 62.9295 172.848 72.0734C173.26 72.4863 173.673 72.8993 174.086 73.3712L174.145 73.4302C174.499 73.8432 174.853 74.2561 175.206 74.6101C175.265 74.6691 175.265 74.6691 175.324 74.7281C175.619 75.082 175.914 75.495 176.209 75.8489C176.268 75.9079 176.327 75.9669 176.327 76.0259C176.622 76.3799 176.857 76.7928 177.093 77.1468C179.629 81.1583 179.924 84.2849 179.806 85.8187C175.678 81.2763 156.631 62.1626 132.631 62.1626C107.747 62.1626 79.5012 88.2964 74.9017 92.7799C74.4889 91.364 74.43 87.7655 79.1474 81.9252ZM87.5799 111.245C88.8772 111.068 90.5872 110.714 91.4128 110.537C91.7666 110.478 92.1204 110.419 92.4742 110.419L100.022 109.947C100.907 109.947 101.673 109.947 102.086 109.947C102.735 109.947 103.442 109.947 104.15 109.947L110.695 110.36C118.479 111.363 125.143 114.784 122.135 126.465C118.479 139.915 102.558 139.738 98.43 139.738C83.9828 139.738 80.6216 130.122 80.6216 116.967C80.2678 113.899 83.4521 112.188 87.5799 111.245ZM81.801 109.593C81.9189 109.593 82.0369 109.534 82.1548 109.534C81.9779 109.534 81.86 109.593 81.801 109.593ZM80.9754 109.711C81.0934 109.711 81.2113 109.652 81.3292 109.652C81.2113 109.652 81.0934 109.711 80.9754 109.711ZM79.5602 109.947C79.6781 109.947 79.7371 109.888 79.855 109.888C79.7371 109.888 79.6192 109.947 79.5602 109.947ZM80.2088 109.829C80.3268 109.829 80.4447 109.77 80.5037 109.77C80.4447 109.77 80.3268 109.829 80.2088 109.829ZM78.5577 110.124C78.6167 110.124 78.6757 110.124 78.7346 110.124C78.6757 110.124 78.6167 110.124 78.5577 110.124ZM77.9681 110.242C78.086 110.242 78.145 110.183 78.2629 110.183C78.145 110.183 78.027 110.242 77.9681 110.242ZM76.6118 110.537C76.5528 110.537 76.4939 110.537 76.4349 110.596C76.4939 110.537 76.5528 110.537 76.6118 110.537ZM77.6732 110.301C77.6143 110.301 77.4963 110.36 77.4373 110.36C77.4963 110.36 77.5553 110.301 77.6732 110.301ZM77.1425 110.419C77.0835 110.419 76.9656 110.478 76.9066 110.478C76.9656 110.419 77.0246 110.419 77.1425 110.419ZM75.4914 110.773H75.5504H75.4914ZM79.2064 147.407C79.1474 147.348 79.0885 147.289 79.0295 147.289C79.0295 147.289 76.7297 145.932 76.6118 142.629C76.5528 139.384 78.145 138.204 78.2039 138.145C78.3808 138.027 78.4398 137.85 78.4398 137.673C78.2039 128.824 76.7887 125.58 75.7862 123.456C75.3735 122.512 75.0786 121.922 75.0786 121.096C75.0786 120.153 75.1966 119.032 76.14 118.442C76.6118 118.678 77.0835 118.973 77.5553 119.445C79.5012 123.279 79.973 130.122 79.973 130.122C80.0909 134.37 79.6192 140.387 79.2064 147.407ZM140.415 201.622C137.29 201.622 132.867 199.262 132.867 193.54C132.867 193.54 131.039 194.306 129.388 194.483C127.737 194.306 125.909 193.54 125.909 193.54C125.909 199.262 121.486 201.622 118.361 201.622C115.236 201.622 102.44 200.619 102.44 184.986C102.44 169.353 120.602 170.355 124.553 170.355C126.558 170.355 128.504 167.111 129.447 163.984C130.391 167.111 132.278 170.355 134.342 170.355C138.292 170.355 156.455 169.353 156.455 184.986C156.455 200.619 143.541 201.622 140.415 201.622ZM162.351 182.036C162.351 161.389 138.174 163.158 137.585 155.607C137.585 155.607 133.457 158.144 130.096 158.144C129.801 158.144 129.565 158.262 129.329 158.439C129.152 158.262 128.916 158.144 128.563 158.144C125.201 158.144 121.074 155.607 121.074 155.607C120.484 163.158 96.3071 161.389 96.3071 182.036C96.3071 182.036 84.3366 160.445 84.3366 150.652C84.3366 144.045 84.0418 139.443 83.629 136.317C88.4644 141.095 98.0762 141.095 98.0762 141.095C124.907 141.154 123.55 126.76 125.084 120.919C126.263 117.852 128.386 117.793 129.152 117.911V117.97C129.152 117.97 129.211 117.97 129.329 117.911C129.447 117.911 129.506 117.97 129.506 117.97V117.911C130.332 117.793 132.396 117.852 133.575 120.919C135.108 126.76 133.693 141.213 160.582 141.095C160.582 141.095 170.194 141.095 175.029 136.317C174.617 139.443 174.322 144.045 174.322 150.652C174.322 160.445 162.351 182.036 162.351 182.036ZM147.197 110.419L155.806 109.888C156.101 109.888 156.337 109.888 156.631 109.888C157.398 109.888 158.872 109.888 160.7 109.947L164.533 110.183C170.961 110.773 178.686 112.365 178.155 116.908C178.155 130.004 174.735 139.679 160.346 139.679C156.219 139.679 140.297 139.856 136.641 126.406C133.634 115.138 139.767 111.54 147.197 110.419ZM183.521 121.096C183.521 121.863 183.226 122.512 182.813 123.456C181.87 125.58 180.396 128.765 180.16 137.673C180.16 137.85 180.278 138.086 180.396 138.145C180.396 138.145 182.047 139.325 181.988 142.629C181.929 145.873 179.688 147.23 179.629 147.289C179.57 147.289 179.57 147.348 179.511 147.407C179.157 140.446 178.686 134.429 178.686 130.181C178.686 130.181 178.686 130.181 178.627 130.122C178.686 129.473 179.157 123.279 180.985 119.622C181.516 119.15 181.988 118.796 182.459 118.56C183.403 119.091 183.521 120.212 183.521 121.096ZM177.683 109.711C176.563 109.534 175.324 109.357 173.909 109.18C174.086 108.944 174.204 108.767 174.204 108.767C173.555 108.295 172.907 106.702 172.907 106.702C171.256 106.407 168.72 103.222 168.72 103.222C165.654 104.047 155.865 103.281 155.865 103.281C156.219 102.75 156.926 102.455 156.926 102.455C150.794 101.747 143.953 104.696 143.953 104.696C143.717 104.106 144.602 102.455 144.602 102.455C140.71 103.871 139.118 109.239 138.646 111.245C135.816 112.13 133.221 112.837 129.388 112.837C126.086 112.837 123.668 112.306 121.251 111.599C120.897 109.947 119.364 103.988 115.236 102.455C115.236 102.455 116.12 104.106 115.885 104.696C115.885 104.696 109.044 101.747 102.912 102.455C102.912 102.455 103.56 102.75 103.973 103.281C103.973 103.281 94.2432 103.988 91.1179 103.222C91.1179 103.222 88.5233 106.407 86.9312 106.702C86.9312 106.702 86.2826 108.354 85.6339 108.767C85.6339 108.767 85.7518 108.885 85.8698 109.062C85.0442 109.18 84.2187 109.239 83.4521 109.357C83.1572 102.219 82.3907 95.7885 82.1548 94.1957C87.226 90.4791 89.5848 84.3439 90.4693 81.2173C101.791 72.7813 117.83 63.3424 132.572 63.3424C136.759 63.3424 140.769 63.9324 144.602 64.9353C146.607 68.0029 152.857 76.9698 154.568 72.7813C154.568 72.7813 159.285 77.0288 163.708 73.9022C163.708 73.9022 169.604 83.9899 168.425 90.7741C167.246 97.5583 174.617 97.5583 174.617 97.5583C174.617 97.5583 175.324 104.519 177.683 109.711Z" fill=""/>
</svg>
