<svg width="984" height="270" class="logo" viewBox="0 0 984 270" fill="none" xmlns="http://www.w3.org/2000/svg">
<path class="border" fill-rule="evenodd" clip-rule="evenodd" d="M40 0H300C322.091 0 340 17.9086 340 40V230C340 252.091 322.091 270 300 270H40C17.9086 270 0 252.091 0 230V40C0 17.9086 17.9086 0 40 0ZM40 20C28.9543 20 20 28.9543 20 40V230C20 241.046 28.9543 250 40 250H300C311.046 250 320 241.046 320 230V40C320 28.9543 311.046 20 300 20H40Z" fill="#000000"/>

<path class="key esc first-row nth-1" d="M40 50C40 44.4772 44.4772 40 50 40H80C85.5228 40 90 44.4772 90 50V80C90 85.5228 85.5228 90 80 90H50C44.4772 90 40 85.5228 40 80V50Z" fill="#000000"/>
<path class="key first-row nth-2" d="M110 50C110 44.4772 114.477 40 120 40H150C155.523 40 160 44.4772 160 50V80C160 85.5228 155.523 90 150 90H120C114.477 90 110 85.5228 110 80V50Z" fill="#000000"/>
<path class="key first-row nth-3" d="M180 50C180 44.4772 184.477 40 190 40H220C225.523 40 230 44.4772 230 50V80C230 85.5228 225.523 90 220 90H190C184.477 90 180 85.5228 180 80V50Z" fill="#000000"/>
<path class="key first-row nth-4" d="M250 50C250 44.4772 254.477 40 260 40H290C295.523 40 300 44.4772 300 50V80C300 85.5228 295.523 90 290 90H260C254.477 90 250 85.5228 250 80V50Z" fill="#000000"/>

<path class="key second-row nth-1" d="M40 120C40 114.477 44.4772 110 50 110H80C85.5228 110 90 114.477 90 120V150C90 155.523 85.5228 160 80 160H50C44.4772 160 40 155.523 40 150V120Z" fill="#000000"/>
<path class="key second-row nth-2" d="M110 120C110 114.477 114.477 110 120 110H150C155.523 110 160 114.477 160 120V150C160 155.523 155.523 160 150 160H120C114.477 160 110 155.523 110 150V120Z" fill="#000000"/>
<path class="key second-row nth-3" d="M180 120C180 114.477 184.477 110 190 110H220C225.523 110 230 114.477 230 120V150C230 155.523 225.523 160 220 160H190C184.477 160 180 155.523 180 150V120Z" fill="#000000"/>
<path class="key second-row nth-4" d="M250 120C250 114.477 254.477 110 260 110H290C295.523 110 300 114.477 300 120V150C300 155.523 295.523 160 290 160H260C254.477 160 250 155.523 250 150V120Z" fill="#000000"/>

<path class="key third-row nth-1" d="M40 190C40 184.477 44.4772 180 50 180H80C85.5228 180 90 184.477 90 190V220C90 225.523 85.5228 230 80 230H50C44.4772 230 40 225.523 40 220V190Z" fill="#000000"/>
<path class="key space third-row nth-2" d="M110 190C110 184.477 114.477 180 120 180H220C225.523 180 230 184.477 230 190V220C230 225.523 225.523 230 220 230H120C114.477 230 110 225.523 110 220V190Z" fill="#000000"/>
<path class="key third-row nth-3" d="M250 190C250 184.477 254.477 180 260 180H290C295.523 180 300 184.477 300 190V220C300 225.523 295.523 230 290 230H260C254.477 230 250 225.523 250 220V190Z" fill="#000000"/>

<path class="letter" d="M404.742 95.586V128.648H439.268V95.586H453.664V174.764H439.268V141.214H404.742V174.764H390.346V95.586H404.742Z" fill="#000000"/>
<path class="letter" d="M465.871 95.586H529.311V108.03H504.789V174.764H490.393V108.03H465.871V95.586Z" fill="#000000"/>
<path class="letter" d="M562.034 95.586L583.75 142.678L605.466 95.586H625.352V174.764H610.834V114.618L588.386 166.102H578.992L555.812 112.91V174.764H541.416V95.586H562.034Z" fill="#000000"/>
<path class="letter" d="M662.443 162.198H695.017V174.764H648.047V95.586H662.443V162.198Z" fill="#000000"/>
<path class="letter" d="M798.235 94C803.115 94 807.344 94.61 810.923 95.83C814.502 96.9687 817.592 98.5953 820.195 100.71C825.319 104.858 828.654 110.673 830.199 118.156L814.827 120.962C813.526 116.814 811.492 113.479 808.727 110.958C806.043 108.355 802.668 107.054 798.601 107.054C793.07 107.054 788.597 109.372 785.181 114.008C781.521 119.051 779.691 126.045 779.691 134.992C779.691 143.857 781.318 150.811 784.571 155.854C787.824 160.815 792.257 163.296 797.869 163.296C803.481 163.296 807.71 161.954 810.557 159.27C813.404 156.505 814.827 152.967 814.827 148.656H830.321C830.321 157.521 827.474 164.394 821.781 169.274C816.169 174.073 808.442 176.472 798.601 176.472C788.109 176.472 779.772 172.812 773.591 165.492C767.328 158.009 764.197 147.843 764.197 134.992C764.197 121.979 767.41 111.812 773.835 104.492C780.016 97.4973 788.15 94 798.235 94Z" fill="#000000"/>
<path class="letter" d="M888.733 117.424C887.432 110.511 882.552 107.054 874.093 107.054C869.945 107.054 866.692 107.908 864.333 109.616C862.056 111.243 860.917 113.235 860.917 115.594C860.917 117.953 861.649 119.823 863.113 121.206C864.658 122.507 867.017 123.727 870.189 124.866L887.391 131.576C893.247 133.853 897.761 136.741 900.933 140.238C904.105 143.654 905.691 147.965 905.691 153.17C905.691 160.327 903.007 166.021 897.639 170.25C892.271 174.398 884.626 176.472 874.703 176.472C865.919 176.472 858.802 174.317 853.353 170.006C847.253 165.289 844.04 158.619 843.715 149.998H857.989C857.989 156.505 861.365 160.612 868.115 162.32C870.149 162.889 872.832 163.174 876.167 163.174C879.502 163.174 882.592 162.361 885.439 160.734C888.286 159.026 889.709 156.789 889.709 154.024C889.709 151.177 888.936 149.022 887.391 147.558C885.846 146.013 883.324 144.589 879.827 143.288L864.089 137.066C857.989 134.707 853.312 131.942 850.059 128.77C846.806 125.598 845.179 121.206 845.179 115.594C845.179 109.006 847.741 103.801 852.865 99.978C858.07 95.9927 865.106 94 873.971 94C882.918 94 889.791 96.074 894.589 100.222C899.469 104.289 902.275 110.023 903.007 117.424H888.733Z" fill="#000000"/>
<path class="letter" d="M966.532 117.424C965.231 110.511 960.351 107.054 951.892 107.054C947.744 107.054 944.491 107.908 942.132 109.616C939.855 111.243 938.716 113.235 938.716 115.594C938.716 117.953 939.448 119.823 940.912 121.206C942.457 122.507 944.816 123.727 947.988 124.866L965.19 131.576C971.046 133.853 975.56 136.741 978.732 140.238C981.904 143.654 983.49 147.965 983.49 153.17C983.49 160.327 980.806 166.021 975.438 170.25C970.07 174.398 962.425 176.472 952.502 176.472C943.718 176.472 936.601 174.317 931.152 170.006C925.052 165.289 921.839 158.619 921.514 149.998H935.788C935.788 156.505 939.163 160.612 945.914 162.32C947.947 162.889 950.631 163.174 953.966 163.174C957.301 163.174 960.391 162.361 963.238 160.734C966.085 159.026 967.508 156.789 967.508 154.024C967.508 151.177 966.735 149.022 965.19 147.558C963.645 146.013 961.123 144.589 957.626 143.288L941.888 137.066C935.788 134.707 931.111 131.942 927.858 128.77C924.605 125.598 922.978 121.206 922.978 115.594C922.978 109.006 925.54 103.801 930.664 99.978C935.869 95.9927 942.905 94 951.77 94C960.717 94 967.589 96.074 972.388 100.222C977.268 104.289 980.074 110.023 980.806 117.424H966.532Z" fill="#000000"/>
<path class="letter y" d="M715.652 115.472L729.926 158.172L742.37 115.472H757.01L734.318 185.5C731.96 192.576 729.072 197.66 725.656 200.75C722.322 203.841 718.052 205.386 712.846 205.386C707.56 205.386 702.273 204.085 696.986 201.482V188.794C701.216 191.478 705.486 192.82 709.796 192.82C712.643 192.82 714.961 191.682 716.75 189.404C718.621 187.127 720.126 184.158 721.264 180.498L723.094 174.764L699.304 115.472H715.652Z" fill="#000000"/>
</svg>
