<svg class="logo {% if page.layout == 'home' %}bigger{% endif %}" width="2680" height="610" viewBox="0 0 2680 610" fill="none" xmlns="http://www.w3.org/2000/svg">
<path fill-rule="evenodd" clip-rule="evenodd" d="M0 50C0 22.3858 22.3858 0 50 0H2337C2364.61 0 2387 22.3858 2387 50V560C2387 587.614 2364.61 610 2337 610H50C22.3858 610 0 587.614 0 560V50ZM2606.89 237.224C2601.32 207.644 2580.44 192.854 2544.25 192.854C2526.5 192.854 2512.58 196.508 2502.49 203.816C2492.74 210.776 2487.87 219.302 2487.87 229.394C2487.87 239.486 2491 247.49 2497.27 253.406C2503.88 258.974 2513.97 264.194 2527.54 269.066L2601.14 297.776C2626.2 307.52 2645.51 319.874 2659.09 334.838C2672.66 349.454 2679.44 367.898 2679.44 390.17C2679.44 420.794 2667.96 445.154 2644.99 463.25C2622.02 480.998 2589.31 489.872 2546.86 489.872C2509.27 489.872 2478.82 480.65 2455.51 462.206C2429.41 442.022 2415.66 413.486 2414.27 376.598H2475.34C2475.34 404.438 2489.78 422.012 2518.67 429.32C2527.37 431.756 2538.85 432.974 2553.12 432.974C2567.39 432.974 2580.61 429.494 2592.79 422.534C2604.97 415.226 2611.06 405.656 2611.06 393.824C2611.06 381.644 2607.76 372.422 2601.14 366.158C2594.53 359.546 2583.74 353.456 2568.78 347.888L2501.44 321.266C2475.34 311.174 2455.33 299.342 2441.41 285.77C2427.49 272.198 2420.53 253.406 2420.53 229.394C2420.53 201.206 2431.49 178.934 2453.42 162.578C2475.69 145.526 2505.79 137 2543.72 137C2582 137 2611.41 145.874 2631.94 163.622C2652.82 181.022 2664.83 205.556 2667.96 237.224H2606.89ZM1886.79 133.436C1907.67 133.436 1925.77 136.046 1941.08 141.266C1956.39 146.138 1969.62 153.098 1980.76 162.146C2002.68 179.894 2016.95 204.776 2023.56 236.792L1957.79 248.798C1952.22 231.05 1943.52 216.782 1931.69 205.994C1920.2 194.858 1905.76 189.29 1888.36 189.29C1864.7 189.29 1845.56 199.208 1830.94 219.044C1815.28 240.62 1807.45 270.548 1807.45 308.828C1807.45 346.76 1814.41 376.514 1828.33 398.09C1842.25 419.318 1861.22 429.932 1885.23 429.932C1909.24 429.932 1927.34 424.19 1939.52 412.706C1951.7 400.874 1957.79 385.736 1957.79 367.292H2024.08C2024.08 405.224 2011.9 434.63 1987.54 455.51C1963.53 476.042 1930.47 486.308 1888.36 486.308C1843.47 486.308 1807.8 470.648 1781.35 439.328C1754.55 407.312 1741.16 363.812 1741.16 308.828C1741.16 253.148 1754.9 209.648 1782.39 178.328C1808.84 148.4 1843.64 133.436 1886.79 133.436ZM202.142 281.684V140.222H140.546V479H202.142V335.45H349.868V479H411.464V140.222H349.868V281.684H202.142ZM735.132 140.222H463.692V193.466H568.615V479H630.21V193.466H735.132V140.222ZM875.147 140.222L968.063 341.714L1060.98 140.222H1146.06V479H1083.95V221.654L987.899 441.938H947.705L848.525 214.346V479H786.929V140.222H875.147ZM1444.14 425.234H1304.76V140.222H1243.17V479H1444.14V425.234ZM2211.37 189.29C2247.56 189.29 2268.44 204.08 2274.01 233.66H2335.08C2331.95 201.992 2319.95 177.458 2299.06 160.058C2278.53 142.31 2249.13 133.436 2210.85 133.436C2172.92 133.436 2142.81 141.962 2120.54 159.014C2098.62 175.37 2087.65 197.642 2087.65 225.83C2087.65 249.842 2094.61 268.634 2108.53 282.206C2122.45 295.778 2142.46 307.61 2168.56 317.702L2235.9 344.324C2250.87 349.892 2261.65 355.982 2268.27 362.594C2274.88 368.858 2278.19 378.08 2278.19 390.26C2278.19 402.092 2272.09 411.662 2259.92 418.97C2247.74 425.93 2234.51 429.41 2220.24 429.41C2205.97 429.41 2194.49 428.192 2185.79 425.756C2156.91 418.448 2142.46 400.874 2142.46 373.034H2081.39C2082.78 409.922 2096.53 438.458 2122.63 458.642C2145.94 477.086 2176.4 486.308 2213.98 486.308C2256.44 486.308 2289.15 477.434 2312.11 459.686C2335.08 441.59 2346.57 417.23 2346.57 386.606C2346.57 364.334 2339.78 345.89 2326.21 331.274C2312.64 316.31 2293.32 303.956 2268.27 294.212L2194.67 265.502C2181.09 260.63 2171 255.41 2164.39 249.842C2158.12 243.926 2154.99 235.922 2154.99 225.83C2154.99 215.738 2159.86 207.212 2169.61 200.252C2179.7 192.944 2193.62 189.29 2211.37 189.29ZM1588.77 269.902L1553.34 164H1512.75L1571.81 311.053L1567.27 325.274C1564.44 334.351 1560.7 341.714 1556.06 347.362C1551.62 353.01 1545.87 355.834 1538.8 355.834C1528.1 355.834 1517.5 352.506 1507 345.849V377.318C1520.12 383.772 1533.25 387 1546.37 387C1559.29 387 1569.89 383.167 1578.17 375.502C1586.65 367.837 1593.82 355.229 1599.67 337.68L1656 164H1619.66L1588.77 269.902Z" fill="white"/>
</svg>
