<svg width="984" height="201" class="logo" viewBox="0 0 984 201" fill="none" xmlns="http://www.w3.org/2000/svg">
<path class="border" fill-rule="evenodd" clip-rule="evenodd" d="M40 0H300C322.091 0 340 17.9086 340 40V160.5C340 182.591 322.091 200.5 300 200.5H40C17.9086 200.5 0 182.591 0 160.5V40C0 17.9086 17.9086 0 40 0ZM40 20C28.9543 20 20 28.9543 20 40V160.5C20 171.546 28.9543 180.5 40 180.5H300C311.046 180.5 320 171.546 320 160.5V40C320 28.9543 311.046 20 300 20H40Z" fill="#373B4B"/>
<path class="key esc first-row nth-1" d="M40 50.5C40 44.9772 44.4772 40.5 50 40.5H80C85.5228 40.5 90 44.9772 90 50.5V80.5C90 86.0228 85.5228 90.5 80 90.5H50C44.4772 90.5 40 86.0228 40 80.5V50.5Z" fill="#FF0033"/>
<path class="key first-row nth-2" d="M110 50.5C110 44.9772 114.477 40.5 120 40.5H150C155.523 40.5 160 44.9772 160 50.5V80.5C160 86.0228 155.523 90.5 150 90.5H120C114.477 90.5 110 86.0228 110 80.5V50.5Z" fill="#373B4B"/>
<path class="key first-row nth-3" d="M180 50.5C180 44.9772 184.477 40.5 190 40.5H220C225.523 40.5 230 44.9772 230 50.5V80.5C230 86.0228 225.523 90.5 220 90.5H190C184.477 90.5 180 86.0228 180 80.5V50.5Z" fill="#373B4B"/>
<path class="key first-row nth-4" d="M250 50.5C250 44.9772 254.477 40.5 260 40.5H290C295.523 40.5 300 44.9772 300 50.5V80.5C300 86.0228 295.523 90.5 290 90.5H260C254.477 90.5 250 86.0228 250 80.5V50.5Z" fill="#373B4B"/>
<path class="key third-row nth-1" d="M40 120.5C40 114.977 44.4772 110.5 50 110.5H80C85.5228 110.5 90 114.977 90 120.5V150.5C90 156.023 85.5228 160.5 80 160.5H50C44.4772 160.5 40 156.023 40 150.5V120.5Z" fill="#373B4B"/>
<path class="key space third-row nth-2" d="M110 120.5C110 114.977 114.477 110.5 120 110.5H220C225.523 110.5 230 114.977 230 120.5V150.5C230 156.023 225.523 160.5 220 160.5H120C114.477 160.5 110 156.023 110 150.5V120.5Z" fill="#373B4B"/>
<path class="key third-row nth-3" d="M250 120.5C250 114.977 254.477 110.5 260 110.5H290C295.523 110.5 300 114.977 300 120.5V150.5C300 156.023 295.523 160.5 290 160.5H260C254.477 160.5 250 156.023 250 150.5V120.5Z" fill="#373B4B"/>
<path class="letter" d="M404.742 59.086V92.148H439.268V59.086H453.664V138.264H439.268V104.714H404.742V138.264H390.346V59.086H404.742Z" fill="#373B4B"/>
<path class="letter" d="M465.871 59.086H529.311V71.53H504.789V138.264H490.393V71.53H465.871V59.086Z" fill="#373B4B"/>
<path class="letter" d="M562.034 59.086L583.75 106.178L605.466 59.086H625.352V138.264H610.834V78.118L588.386 129.602H578.992L555.812 76.41V138.264H541.416V59.086H562.034Z" fill="#373B4B"/>
<path class="letter" d="M662.443 125.698H695.017V138.264H648.047V59.086H662.443V125.698Z" fill="#373B4B"/>
<path class="letter y" d="M715.652 78.9722L729.926 121.672L742.37 78.9722H757.01L734.318 149C731.96 156.076 729.072 161.16 725.656 164.25C722.322 167.341 718.052 168.886 712.846 168.886C707.56 168.886 702.273 167.585 696.986 164.982V152.294C701.216 154.978 705.486 156.32 709.796 156.32C712.643 156.32 714.961 155.182 716.75 152.904C718.621 150.627 720.126 147.658 721.264 143.998L723.094 138.264L699.304 78.9722H715.652Z" fill="#FF0033"/>
<path class="letter" d="M798.235 57.5C803.115 57.5 807.344 58.11 810.923 59.33C814.501 60.4687 817.592 62.0953 820.195 64.21C825.319 68.358 828.654 74.1733 830.199 81.656L814.827 84.462C813.526 80.314 811.492 76.9793 808.727 74.458C806.043 71.8553 802.667 70.554 798.601 70.554C793.07 70.554 788.597 72.872 785.181 77.508C781.521 82.5507 779.691 89.5453 779.691 98.492C779.691 107.357 781.318 114.311 784.571 119.354C787.824 124.315 792.257 126.796 797.869 126.796C803.481 126.796 807.71 125.454 810.557 122.77C813.404 120.005 814.827 116.467 814.827 112.156H830.321C830.321 121.021 827.474 127.894 821.781 132.774C816.169 137.573 808.442 139.972 798.601 139.972C788.109 139.972 779.772 136.312 773.591 128.992C767.328 121.509 764.197 111.343 764.197 98.492C764.197 85.4787 767.41 75.312 773.835 67.992C780.016 60.9973 788.15 57.5 798.235 57.5Z" fill="#373B4B"/>
<path class="letter" d="M888.733 80.924C887.432 74.0107 882.552 70.554 874.093 70.554C869.945 70.554 866.692 71.408 864.333 73.116C862.056 74.7427 860.917 76.7353 860.917 79.094C860.917 81.4527 861.649 83.3233 863.113 84.706C864.658 86.0073 867.017 87.2273 870.189 88.366L887.391 95.076C893.247 97.3533 897.761 100.241 900.933 103.738C904.105 107.154 905.691 111.465 905.691 116.67C905.691 123.827 903.007 129.521 897.639 133.75C892.271 137.898 884.626 139.972 874.703 139.972C865.919 139.972 858.802 137.817 853.353 133.506C847.253 128.789 844.04 122.119 843.715 113.498H857.989C857.989 120.005 861.364 124.112 868.115 125.82C870.148 126.389 872.832 126.674 876.167 126.674C879.502 126.674 882.592 125.861 885.439 124.234C888.286 122.526 889.709 120.289 889.709 117.524C889.709 114.677 888.936 112.522 887.391 111.058C885.846 109.513 883.324 108.089 879.827 106.788L864.089 100.566C857.989 98.2073 853.312 95.442 850.059 92.27C846.806 89.098 845.179 84.706 845.179 79.094C845.179 72.506 847.741 67.3007 852.865 63.478C858.07 59.4927 865.106 57.5 873.971 57.5C882.918 57.5 889.79 59.574 894.589 63.722C899.469 67.7887 902.275 73.5227 903.007 80.924H888.733Z" fill="#373B4B"/>
<path class="letter" d="M966.532 80.924C965.231 74.0107 960.351 70.554 951.892 70.554C947.744 70.554 944.491 71.408 942.132 73.116C939.855 74.7427 938.716 76.7353 938.716 79.094C938.716 81.4527 939.448 83.3233 940.912 84.706C942.457 86.0073 944.816 87.2273 947.988 88.366L965.19 95.076C971.046 97.3533 975.56 100.241 978.732 103.738C981.904 107.154 983.49 111.465 983.49 116.67C983.49 123.827 980.806 129.521 975.438 133.75C970.07 137.898 962.425 139.972 952.502 139.972C943.718 139.972 936.601 137.817 931.152 133.506C925.052 128.789 921.839 122.119 921.514 113.498H935.788C935.788 120.005 939.163 124.112 945.914 125.82C947.947 126.389 950.631 126.674 953.966 126.674C957.301 126.674 960.391 125.861 963.238 124.234C966.085 122.526 967.508 120.289 967.508 117.524C967.508 114.677 966.735 112.522 965.19 111.058C963.645 109.513 961.123 108.089 957.626 106.788L941.888 100.566C935.788 98.2073 931.111 95.442 927.858 92.27C924.605 89.098 922.978 84.706 922.978 79.094C922.978 72.506 925.54 67.3007 930.664 63.478C935.869 59.4927 942.905 57.5 951.77 57.5C960.717 57.5 967.589 59.574 972.388 63.722C977.268 67.7887 980.074 73.5227 980.806 80.924H966.532Z" fill="#373B4B"/>
</svg>
